<svg xmlns="http://www.w3.org/2000/svg" width="428" height="18" viewBox="0 0 428 18">
  <g id="top_bar" transform="translate(0 -57)">
    <path id="Rectangle_43" data-name="Rectangle 43" d="M0,0H428a0,0,0,0,1,0,0V0a6,6,0,0,1-6,6H6A6,6,0,0,1,0,0V0A0,0,0,0,1,0,0Z" transform="translate(0 57)" fill="#304ffe"/>
    <path id="Rectangle_44" data-name="Rectangle 44" d="M0,0H384a0,0,0,0,1,0,0V0a6,6,0,0,1-6,6H6A6,6,0,0,1,0,0V0A0,0,0,0,1,0,0Z" transform="translate(22 63)" fill="#8b9bf5"/>
    <path id="Rectangle_3" data-name="Rectangle 3" d="M0,0H267a0,0,0,0,1,0,0V0a6,6,0,0,1-6,6H6A6,6,0,0,1,0,0V0A0,0,0,0,1,0,0Z" transform="translate(81 69)" fill="#c5ceff"/>
  </g>
</svg>
